<svg width="1218" height="979" viewBox="0 0 1218 979" fill="none" xmlns="http://www.w3.org/2000/svg">
<mask id="path-1-outside-1_329_40" maskUnits="userSpaceOnUse" x="18" y="99" width="1045" height="544" fill="black">
<rect fill="white" x="18" y="99" width="1045" height="544"/>
<path d="M59.4521 602V140.429H142.424V333.159H344.626V140.429H427.598V602H344.626V409.271H142.424V602H59.4521ZM546.829 602V140.429H629.801V381.178L854.543 140.429H965.607L781.044 329.565L969.201 602H865.976L723.552 385.098L629.801 482.116V602H546.829Z"/>
</mask>
<path d="M59.4521 602V140.429H142.424V333.159H344.626V140.429H427.598V602H344.626V409.271H142.424V602H59.4521ZM546.829 602V140.429H629.801V381.178L854.543 140.429H965.607L781.044 329.565L969.201 602H865.976L723.552 385.098L629.801 482.116V602H546.829Z" fill="white"/>
<path d="M59.4521 602H18.4521V643H59.4521V602ZM59.4521 140.429V99.4292H18.4521V140.429H59.4521ZM142.424 140.429H183.424V99.4292H142.424V140.429ZM142.424 333.159H101.424V374.159H142.424V333.159ZM344.626 333.159V374.159H385.626V333.159H344.626ZM344.626 140.429V99.4292H303.626V140.429H344.626ZM427.598 140.429H468.598V99.4292H427.598V140.429ZM427.598 602V643H468.598V602H427.598ZM344.626 602H303.626V643H344.626V602ZM344.626 409.271H385.626V368.271H344.626V409.271ZM142.424 409.271V368.271H101.424V409.271H142.424ZM142.424 602V643H183.424V602H142.424ZM100.452 602V140.429H18.4521V602H100.452ZM59.4521 181.429H142.424V99.4292H59.4521V181.429ZM101.424 140.429V333.159H183.424V140.429H101.424ZM142.424 374.159H344.626V292.159H142.424V374.159ZM385.626 333.159V140.429H303.626V333.159H385.626ZM344.626 181.429H427.598V99.4292H344.626V181.429ZM386.598 140.429V602H468.598V140.429H386.598ZM427.598 561H344.626V643H427.598V561ZM385.626 602V409.271H303.626V602H385.626ZM344.626 368.271H142.424V450.271H344.626V368.271ZM101.424 409.271V602H183.424V409.271H101.424ZM142.424 561H59.4521V643H142.424V561ZM546.829 602H505.829V643H546.829V602ZM546.829 140.429V99.4292H505.829V140.429H546.829ZM629.801 140.429H670.801V99.4292H629.801V140.429ZM629.801 381.178H588.801V485.181L659.771 409.156L629.801 381.178ZM854.543 140.429V99.4292H836.729L824.572 112.451L854.543 140.429ZM965.607 140.429L994.951 169.064L1062.9 99.4292H965.607V140.429ZM781.044 329.565L751.7 300.931L728.126 325.09L747.308 352.865L781.044 329.565ZM969.201 602V643H1047.35L1002.94 578.7L969.201 602ZM865.976 602L831.704 624.504L843.849 643H865.976V602ZM723.552 385.098L757.824 362.594L729.689 319.746L694.069 356.607L723.552 385.098ZM629.801 482.116L600.317 453.625L588.801 465.543V482.116H629.801ZM629.801 602V643H670.801V602H629.801ZM587.829 602V140.429H505.829V602H587.829ZM546.829 181.429H629.801V99.4292H546.829V181.429ZM588.801 140.429V381.178H670.801V140.429H588.801ZM659.771 409.156L884.514 168.407L824.572 112.451L599.83 353.2L659.771 409.156ZM854.543 181.429H965.607V99.4292H854.543V181.429ZM936.263 111.795L751.7 300.931L810.388 358.2L994.951 169.064L936.263 111.795ZM747.308 352.865L935.465 625.3L1002.94 578.7L814.781 306.266L747.308 352.865ZM969.201 561H865.976V643H969.201V561ZM900.248 579.496L757.824 362.594L689.28 407.602L831.704 624.504L900.248 579.496ZM694.069 356.607L600.317 453.625L659.284 510.607L753.036 413.588L694.069 356.607ZM588.801 482.116V602H670.801V482.116H588.801ZM629.801 561H546.829V643H629.801V561Z" fill="white" mask="url(#path-1-outside-1_329_40)"/>
<mask id="path-3-outside-2_329_40" maskUnits="userSpaceOnUse" x="440.479" y="514.494" width="671.784" height="254.476" fill="black">
<rect fill="white" x="440.479" y="514.494" width="671.784" height="254.476"/>
<path d="M520.814 685.897L556.193 679.291L565.096 726.963L552.554 729.305L548.862 717.144C547.234 721.796 544.34 725.78 540.181 729.097C536.064 732.406 531.114 734.6 525.332 735.68C518.302 736.992 511.795 736.959 505.812 735.58C499.821 734.158 494.727 731.666 490.532 728.101C486.328 724.495 482.831 720.176 480.04 715.144C477.283 710.062 475.33 704.443 474.18 698.286C473.264 693.378 472.914 688.622 473.13 684.018C473.381 679.365 474.292 674.911 475.866 670.657C477.431 666.361 479.593 662.492 482.351 659.05C485.109 655.607 488.691 652.657 493.096 650.198C497.536 647.69 502.584 645.908 508.241 644.852C516.977 643.22 525.081 643.967 532.552 647.092C540.057 650.168 546.343 655.473 551.409 663.007L538.465 671.495C535.422 666.036 531.491 662.271 526.67 660.201C521.849 658.131 516.527 657.64 510.703 658.727C506.211 659.566 502.376 661.165 499.201 663.523C496.017 665.839 493.636 668.652 492.059 671.96C490.523 675.26 489.555 678.841 489.157 682.704C488.793 686.517 489.004 690.525 489.788 694.726C490.627 699.219 491.92 703.261 493.667 706.852C495.448 710.394 497.674 713.444 500.347 716.001C503.021 718.558 506.26 720.343 510.065 721.354C513.903 722.316 518.111 722.37 522.687 721.515C529.758 720.195 535.104 717.238 538.723 712.644C542.377 708.002 543.672 702.142 542.608 695.065L523.203 698.689L520.814 685.897ZM584.377 723.362L567.912 635.194L596.428 629.869C600.588 629.092 604.607 628.944 608.485 629.425C612.363 629.907 615.898 630.968 619.089 632.611C622.322 634.246 625.06 636.576 627.304 639.601C629.54 642.584 631.034 646.093 631.788 650.129C632.798 655.536 632.103 660.574 629.702 665.241C627.294 669.866 623.678 673.555 618.854 676.307L650.706 710.976L632.548 714.367L603.795 680.733L598.679 681.689L593.188 682.714L600.226 720.403L584.377 723.362ZM590.901 669.775L604.878 667.164C609.048 666.213 612.129 664.497 614.119 662.016C616.11 659.535 616.794 656.631 616.173 653.303C615.489 649.642 613.614 646.979 610.548 645.313C607.474 643.605 603.691 643.171 599.198 644.01L586.531 646.375L590.901 669.775ZM714.516 697.898C710.111 700.356 705.079 702.114 699.422 703.17C693.764 704.227 688.417 704.407 683.38 703.712C678.376 702.968 673.971 701.509 670.164 699.335C666.35 697.12 662.941 694.313 659.938 690.913C656.928 687.471 654.47 683.647 652.565 679.439C650.694 675.183 649.304 670.621 648.395 665.754C647.487 660.887 647.14 656.151 647.357 651.548C647.607 646.895 648.519 642.441 650.092 638.187C651.658 633.891 653.824 630.042 656.589 626.642C659.347 623.199 662.929 620.249 667.335 617.79C671.774 615.282 676.822 613.5 682.48 612.444C688.137 611.387 693.468 611.231 698.471 611.976C703.509 612.671 707.935 614.126 711.749 616.341C715.556 618.514 718.964 621.322 721.975 624.763C724.977 628.163 727.414 631.991 729.285 636.248C731.19 640.456 732.597 644.993 733.506 649.86C734.415 654.727 734.744 659.487 734.494 664.14C734.277 668.744 733.386 673.194 731.821 677.49C730.248 681.744 728.082 685.592 725.324 689.035C722.558 692.435 718.955 695.39 714.516 697.898ZM686.564 689.299C689.728 689.87 693.139 689.814 696.8 689.131C700.461 688.447 703.663 687.268 706.407 685.593C709.151 683.919 711.321 681.942 712.919 679.663C714.517 677.385 715.712 674.794 716.504 671.891C717.331 668.938 717.735 665.914 717.716 662.818C717.739 659.714 717.428 656.436 716.784 652.983C716.147 649.572 715.257 646.423 714.116 643.537C713.008 640.601 711.54 637.926 709.711 635.513C707.925 633.091 705.875 631.106 703.562 629.558C701.25 628.009 698.512 626.949 695.349 626.378C692.186 625.806 688.774 625.862 685.113 626.546C681.452 627.229 678.25 628.408 675.506 630.083C672.763 631.758 670.592 633.734 668.994 636.013C667.396 638.292 666.18 640.886 665.346 643.797C664.554 646.7 664.15 649.725 664.135 652.87C664.153 655.966 664.481 659.22 665.118 662.631C665.763 666.084 666.635 669.257 667.735 672.151C668.877 675.037 670.345 677.712 672.14 680.175C673.968 682.589 676.038 684.57 678.351 686.118C680.663 687.667 683.401 688.727 686.564 689.299ZM773.255 688.091L759.436 614.087L731.793 619.249L729.148 605.085L800.22 591.813L802.865 605.977L775.285 611.128L789.104 685.131L773.255 688.091ZM829.351 677.616L812.886 589.448L871.54 578.495L874.255 593.033L831.45 601.027L835.61 623.303L875.483 615.857L878.198 630.396L838.325 637.841L842.403 659.681L885.208 651.687L888.005 666.663L829.351 677.616ZM932.494 659.388C928.542 660.126 924.614 660.3 920.71 659.91C916.798 659.478 913.108 658.51 909.642 657.004C906.175 655.499 903.049 653.285 900.265 650.361C897.472 647.395 895.351 643.874 893.901 639.797L908.88 632.867C910.399 638.007 913.071 641.598 916.896 643.639C920.763 645.672 925.172 646.226 930.122 645.302C934.698 644.448 938.056 642.723 940.198 640.127C942.381 637.524 943.169 634.6 942.563 631.355C942.159 629.192 941.174 627.374 939.608 625.902C938.075 624.38 936.209 623.265 934.011 622.556C931.804 621.806 929.306 621.11 926.518 620.468C923.77 619.819 920.976 619.265 918.135 618.805C915.294 618.345 912.448 617.628 909.597 616.654C906.788 615.672 904.226 614.515 901.91 613.182C899.587 611.808 897.546 609.864 895.785 607.352C894.066 604.832 892.888 601.866 892.251 598.455C891.311 593.421 891.76 588.796 893.598 584.578C895.437 580.36 898.244 576.952 902.021 574.352C905.789 571.711 910.191 569.921 915.224 568.981C920.881 567.925 926.28 568.251 931.421 569.96C936.554 571.627 941.062 574.789 944.945 579.445L933.282 589.953C931.184 587.246 928.735 585.314 925.936 584.157C923.129 582.959 920.249 582.636 917.296 583.188C914.134 583.778 911.656 585.145 909.861 587.288C908.065 589.432 907.428 591.897 907.948 594.684C908.275 596.431 909.052 597.943 910.281 599.221C911.543 600.449 913.079 601.41 914.888 602.106C916.738 602.793 918.809 603.397 921.102 603.916C923.436 604.427 925.853 604.923 928.354 605.403C930.888 605.833 933.417 606.351 935.941 606.956C938.498 607.512 940.97 608.299 943.355 609.317C945.783 610.327 947.97 611.555 949.919 612.999C951.909 614.435 953.624 616.354 955.062 618.754C956.534 621.105 957.562 623.841 958.144 626.961C959.154 632.368 958.65 637.392 956.632 642.03C954.648 646.62 951.545 650.406 947.324 653.39C943.095 656.332 938.151 658.332 932.494 659.388ZM978.108 649.837L961.643 561.669L977.492 558.709L986.08 604.696L1020.42 550.693L1041.64 546.731L1013.13 589.443L1058.79 634.771L1039.07 638.453L1004.13 602.101L989.68 623.977L993.957 646.877L978.108 649.837Z"/>
</mask>
<path d="M520.814 685.897L556.193 679.291L565.096 726.963L552.554 729.305L548.862 717.144C547.234 721.796 544.34 725.78 540.181 729.097C536.064 732.406 531.114 734.6 525.332 735.68C518.302 736.992 511.795 736.959 505.812 735.58C499.821 734.158 494.727 731.666 490.532 728.101C486.328 724.495 482.831 720.176 480.04 715.144C477.283 710.062 475.33 704.443 474.18 698.286C473.264 693.378 472.914 688.622 473.13 684.018C473.381 679.365 474.292 674.911 475.866 670.657C477.431 666.361 479.593 662.492 482.351 659.05C485.109 655.607 488.691 652.657 493.096 650.198C497.536 647.69 502.584 645.908 508.241 644.852C516.977 643.22 525.081 643.967 532.552 647.092C540.057 650.168 546.343 655.473 551.409 663.007L538.465 671.495C535.422 666.036 531.491 662.271 526.67 660.201C521.849 658.131 516.527 657.64 510.703 658.727C506.211 659.566 502.376 661.165 499.201 663.523C496.017 665.839 493.636 668.652 492.059 671.96C490.523 675.26 489.555 678.841 489.157 682.704C488.793 686.517 489.004 690.525 489.788 694.726C490.627 699.219 491.92 703.261 493.667 706.852C495.448 710.394 497.674 713.444 500.347 716.001C503.021 718.558 506.26 720.343 510.065 721.354C513.903 722.316 518.111 722.37 522.687 721.515C529.758 720.195 535.104 717.238 538.723 712.644C542.377 708.002 543.672 702.142 542.608 695.065L523.203 698.689L520.814 685.897ZM584.377 723.362L567.912 635.194L596.428 629.869C600.588 629.092 604.607 628.944 608.485 629.425C612.363 629.907 615.898 630.968 619.089 632.611C622.322 634.246 625.06 636.576 627.304 639.601C629.54 642.584 631.034 646.093 631.788 650.129C632.798 655.536 632.103 660.574 629.702 665.241C627.294 669.866 623.678 673.555 618.854 676.307L650.706 710.976L632.548 714.367L603.795 680.733L598.679 681.689L593.188 682.714L600.226 720.403L584.377 723.362ZM590.901 669.775L604.878 667.164C609.048 666.213 612.129 664.497 614.119 662.016C616.11 659.535 616.794 656.631 616.173 653.303C615.489 649.642 613.614 646.979 610.548 645.313C607.474 643.605 603.691 643.171 599.198 644.01L586.531 646.375L590.901 669.775ZM714.516 697.898C710.111 700.356 705.079 702.114 699.422 703.17C693.764 704.227 688.417 704.407 683.38 703.712C678.376 702.968 673.971 701.509 670.164 699.335C666.35 697.12 662.941 694.313 659.938 690.913C656.928 687.471 654.47 683.647 652.565 679.439C650.694 675.183 649.304 670.621 648.395 665.754C647.487 660.887 647.14 656.151 647.357 651.548C647.607 646.895 648.519 642.441 650.092 638.187C651.658 633.891 653.824 630.042 656.589 626.642C659.347 623.199 662.929 620.249 667.335 617.79C671.774 615.282 676.822 613.5 682.48 612.444C688.137 611.387 693.468 611.231 698.471 611.976C703.509 612.671 707.935 614.126 711.749 616.341C715.556 618.514 718.964 621.322 721.975 624.763C724.977 628.163 727.414 631.991 729.285 636.248C731.19 640.456 732.597 644.993 733.506 649.86C734.415 654.727 734.744 659.487 734.494 664.14C734.277 668.744 733.386 673.194 731.821 677.49C730.248 681.744 728.082 685.592 725.324 689.035C722.558 692.435 718.955 695.39 714.516 697.898ZM686.564 689.299C689.728 689.87 693.139 689.814 696.8 689.131C700.461 688.447 703.663 687.268 706.407 685.593C709.151 683.919 711.321 681.942 712.919 679.663C714.517 677.385 715.712 674.794 716.504 671.891C717.331 668.938 717.735 665.914 717.716 662.818C717.739 659.714 717.428 656.436 716.784 652.983C716.147 649.572 715.257 646.423 714.116 643.537C713.008 640.601 711.54 637.926 709.711 635.513C707.925 633.091 705.875 631.106 703.562 629.558C701.25 628.009 698.512 626.949 695.349 626.378C692.186 625.806 688.774 625.862 685.113 626.546C681.452 627.229 678.25 628.408 675.506 630.083C672.763 631.758 670.592 633.734 668.994 636.013C667.396 638.292 666.18 640.886 665.346 643.797C664.554 646.7 664.15 649.725 664.135 652.87C664.153 655.966 664.481 659.22 665.118 662.631C665.763 666.084 666.635 669.257 667.735 672.151C668.877 675.037 670.345 677.712 672.14 680.175C673.968 682.589 676.038 684.57 678.351 686.118C680.663 687.667 683.401 688.727 686.564 689.299ZM773.255 688.091L759.436 614.087L731.793 619.249L729.148 605.085L800.22 591.813L802.865 605.977L775.285 611.128L789.104 685.131L773.255 688.091ZM829.351 677.616L812.886 589.448L871.54 578.495L874.255 593.033L831.45 601.027L835.61 623.303L875.483 615.857L878.198 630.396L838.325 637.841L842.403 659.681L885.208 651.687L888.005 666.663L829.351 677.616ZM932.494 659.388C928.542 660.126 924.614 660.3 920.71 659.91C916.798 659.478 913.108 658.51 909.642 657.004C906.175 655.499 903.049 653.285 900.265 650.361C897.472 647.395 895.351 643.874 893.901 639.797L908.88 632.867C910.399 638.007 913.071 641.598 916.896 643.639C920.763 645.672 925.172 646.226 930.122 645.302C934.698 644.448 938.056 642.723 940.198 640.127C942.381 637.524 943.169 634.6 942.563 631.355C942.159 629.192 941.174 627.374 939.608 625.902C938.075 624.38 936.209 623.265 934.011 622.556C931.804 621.806 929.306 621.11 926.518 620.468C923.77 619.819 920.976 619.265 918.135 618.805C915.294 618.345 912.448 617.628 909.597 616.654C906.788 615.672 904.226 614.515 901.91 613.182C899.587 611.808 897.546 609.864 895.785 607.352C894.066 604.832 892.888 601.866 892.251 598.455C891.311 593.421 891.76 588.796 893.598 584.578C895.437 580.36 898.244 576.952 902.021 574.352C905.789 571.711 910.191 569.921 915.224 568.981C920.881 567.925 926.28 568.251 931.421 569.96C936.554 571.627 941.062 574.789 944.945 579.445L933.282 589.953C931.184 587.246 928.735 585.314 925.936 584.157C923.129 582.959 920.249 582.636 917.296 583.188C914.134 583.778 911.656 585.145 909.861 587.288C908.065 589.432 907.428 591.897 907.948 594.684C908.275 596.431 909.052 597.943 910.281 599.221C911.543 600.449 913.079 601.41 914.888 602.106C916.738 602.793 918.809 603.397 921.102 603.916C923.436 604.427 925.853 604.923 928.354 605.403C930.888 605.833 933.417 606.351 935.941 606.956C938.498 607.512 940.97 608.299 943.355 609.317C945.783 610.327 947.97 611.555 949.919 612.999C951.909 614.435 953.624 616.354 955.062 618.754C956.534 621.105 957.562 623.841 958.144 626.961C959.154 632.368 958.65 637.392 956.632 642.03C954.648 646.62 951.545 650.406 947.324 653.39C943.095 656.332 938.151 658.332 932.494 659.388ZM978.108 649.837L961.643 561.669L977.492 558.709L986.08 604.696L1020.42 550.693L1041.64 546.731L1013.13 589.443L1058.79 634.771L1039.07 638.453L1004.13 602.101L989.68 623.977L993.957 646.877L978.108 649.837Z" fill="white"/>
<path d="M520.814 685.897L516.959 665.254L496.316 669.109L500.171 689.752L520.814 685.897ZM556.193 679.291L576.837 675.436L572.982 654.793L552.339 658.648L556.193 679.291ZM565.096 726.963L568.951 747.606L589.594 743.751L585.739 723.108L565.096 726.963ZM552.554 729.305L532.459 735.405L537.922 753.4L556.409 749.948L552.554 729.305ZM548.862 717.144L568.957 711.044L550.281 649.52L529.041 710.207L548.862 717.144ZM540.181 729.097L527.089 712.678L527.058 712.703L527.027 712.727L540.181 729.097ZM505.812 735.58L500.965 756.012L501.029 756.028L501.093 756.043L505.812 735.58ZM490.532 728.101L476.858 744.04L476.897 744.073L476.935 744.105L490.532 728.101ZM480.04 715.144L461.582 725.158L461.628 725.244L461.676 725.329L480.04 715.144ZM473.13 684.018L452.161 682.89L452.157 682.96L452.153 683.031L473.13 684.018ZM475.866 670.657L495.562 677.941L495.579 677.894L495.596 677.847L475.866 670.657ZM493.096 650.198L503.33 668.536L503.378 668.509L503.426 668.482L493.096 650.198ZM532.552 647.092L524.449 666.466L524.519 666.495L524.589 666.524L532.552 647.092ZM551.409 663.007L562.924 680.569L580.691 668.92L568.836 651.29L551.409 663.007ZM538.465 671.495L520.122 681.719L531.109 701.429L549.98 689.056L538.465 671.495ZM526.67 660.201L518.384 679.497L526.67 660.201ZM499.201 663.523L511.556 680.503L511.638 680.444L511.72 680.383L499.201 663.523ZM492.059 671.96L473.104 662.919L473.062 663.008L473.02 663.098L492.059 671.96ZM489.157 682.704L468.268 680.552L468.26 680.63L468.253 680.708L489.157 682.704ZM493.667 706.852L474.782 716.038L474.843 716.162L474.905 716.285L493.667 706.852ZM510.065 721.354L504.67 741.649L504.814 741.688L504.96 741.724L510.065 721.354ZM538.723 712.644L555.218 725.642L555.222 725.636L555.227 725.63L538.723 712.644ZM542.608 695.065L563.375 691.945L560.142 670.428L538.753 674.422L542.608 695.065ZM523.203 698.689L502.559 702.544L506.414 723.187L527.057 719.332L523.203 698.689ZM524.669 706.541L560.048 699.934L552.339 658.648L516.959 665.254L524.669 706.541ZM535.55 683.146L544.453 730.818L585.739 723.108L576.837 675.436L535.55 683.146ZM561.241 706.32L548.699 708.662L556.409 749.948L568.951 747.606L561.241 706.32ZM572.648 723.205L568.957 711.044L528.768 723.244L532.459 735.405L572.648 723.205ZM529.041 710.207C528.822 710.832 528.412 711.622 527.089 712.678L553.274 745.516C560.269 739.938 565.646 732.76 568.683 724.081L529.041 710.207ZM527.027 712.727C525.905 713.629 524.248 714.519 521.477 715.037L529.187 756.323C537.98 754.681 546.223 751.182 553.336 745.466L527.027 712.727ZM521.477 715.037C516.823 715.906 513.273 715.749 510.53 715.116L501.093 756.043C510.317 758.169 519.78 758.079 529.187 756.323L521.477 715.037ZM510.659 715.147C507.506 714.399 505.512 713.272 504.128 712.097L476.935 744.105C483.943 750.059 492.135 753.918 500.965 756.012L510.659 715.147ZM504.205 712.163C501.968 710.244 500.034 707.896 498.405 704.959L461.676 725.329C465.628 732.456 470.688 738.746 476.858 744.04L504.205 712.163ZM498.499 705.129C496.87 702.128 495.604 698.613 494.824 694.432L453.537 702.141C455.056 710.274 457.696 717.996 461.582 725.158L498.499 705.129ZM494.824 694.432C494.18 690.987 493.973 687.858 494.107 685.005L452.153 683.031C451.855 689.385 452.347 695.769 453.537 702.141L494.824 694.432ZM494.1 685.146C494.24 682.539 494.74 680.165 495.562 677.941L456.169 663.373C453.845 669.658 452.521 676.191 452.161 682.89L494.1 685.146ZM495.596 677.847C496.408 675.621 497.464 673.773 498.74 672.18L465.962 645.919C461.722 651.211 458.455 657.101 456.135 663.467L495.596 677.847ZM498.74 672.18C499.576 671.137 500.956 669.861 503.33 668.536L482.863 631.86C476.426 635.452 470.643 640.077 465.962 645.919L498.74 672.18ZM503.426 668.482C505.61 667.248 508.423 666.181 512.096 665.495L504.386 624.208C496.745 625.635 489.461 628.133 482.767 631.914L503.426 668.482ZM512.096 665.495C517.215 664.539 521.12 665.073 524.449 666.466L540.655 627.718C529.042 622.861 516.739 621.902 504.386 624.208L512.096 665.495ZM524.589 666.524C527.795 667.838 530.95 670.215 533.982 674.725L568.836 651.29C561.736 640.731 552.32 632.498 540.515 627.66L524.589 666.524ZM539.895 645.446L526.95 653.933L549.98 689.056L562.924 680.569L539.895 645.446ZM556.808 661.27C551.954 652.561 544.812 645.137 534.957 640.905L518.384 679.497C518.398 679.504 518.491 679.535 518.711 679.745C518.959 679.983 519.472 680.553 520.122 681.719L556.808 661.27ZM534.957 640.905C525.831 636.986 516.217 636.335 506.848 638.084L514.558 679.37C516.838 678.945 517.868 679.276 518.384 679.497L534.957 640.905ZM506.848 638.084C499.705 639.418 492.791 642.126 486.682 646.662L511.72 680.383C511.962 680.203 512.716 679.714 514.558 679.37L506.848 638.084ZM486.845 646.542C481.051 650.758 476.297 656.224 473.104 662.919L511.013 681C511.021 680.983 511.025 680.974 511.056 680.938C511.091 680.896 511.228 680.742 511.556 680.503L486.845 646.542ZM473.02 663.098C470.434 668.653 468.889 674.521 468.268 680.552L510.047 684.856C510.221 683.162 510.611 681.866 511.097 680.821L473.02 663.098ZM468.253 680.708C467.682 686.685 468.041 692.671 469.145 698.581L510.431 690.871C509.966 688.378 509.905 686.35 510.062 684.7L468.253 680.708ZM469.145 698.581C470.28 704.661 472.105 710.533 474.782 716.038L512.551 697.666C511.735 695.988 510.974 693.777 510.431 690.871L469.145 698.581ZM474.905 716.285C477.685 721.815 481.305 726.845 485.83 731.175L514.865 700.827C514.044 700.042 513.21 698.973 512.429 697.419L474.905 716.285ZM485.83 731.175C491.228 736.339 497.668 739.788 504.67 741.649L515.459 701.059C515.102 700.964 514.945 700.88 514.915 700.864C514.89 700.85 514.886 700.847 514.865 700.827L485.83 731.175ZM504.96 741.724C512.202 743.539 519.513 743.471 526.542 742.158L518.832 700.872C516.709 701.269 515.604 701.093 515.17 700.984L504.96 741.724ZM526.542 742.158C537.415 740.128 547.77 735.094 555.218 725.642L522.229 699.647C522.227 699.65 522.172 699.745 521.835 699.931C521.444 700.147 520.539 700.553 518.832 700.872L526.542 742.158ZM555.227 725.63C563.202 715.495 565.103 703.445 563.375 691.945L521.841 698.185C521.951 698.918 521.973 699.437 521.967 699.768C521.964 699.933 521.954 700.051 521.946 700.125C521.937 700.2 521.929 700.235 521.929 700.236C521.929 700.237 521.935 700.21 521.951 700.162C521.968 700.113 521.992 700.052 522.024 699.984C522.093 699.836 522.17 699.722 522.22 699.658L555.227 725.63ZM538.753 674.422L519.348 678.046L527.057 719.332L546.463 715.708L538.753 674.422ZM543.846 694.834L541.457 682.043L500.171 689.752L502.559 702.544L543.846 694.834ZM584.377 723.362L563.734 727.217L567.588 747.86L588.232 744.005L584.377 723.362ZM567.912 635.194L564.057 614.551L543.414 618.406L547.269 639.049L567.912 635.194ZM619.089 632.611L609.477 651.283L609.544 651.317L609.611 651.351L619.089 632.611ZM627.304 639.601L610.437 652.112L610.468 652.154L610.5 652.196L627.304 639.601ZM629.702 665.241L648.329 674.938L648.353 674.892L648.377 674.845L629.702 665.241ZM618.854 676.307L608.449 658.066L585.569 671.118L603.39 690.515L618.854 676.307ZM650.706 710.976L654.561 731.619L691.8 724.665L666.17 696.768L650.706 710.976ZM632.548 714.367L616.586 728.012L624.472 737.238L636.403 735.01L632.548 714.367ZM603.795 680.733L619.758 667.088L611.871 657.862L599.941 660.09L603.795 680.733ZM593.188 682.714L589.333 662.071L568.69 665.926L572.545 686.569L593.188 682.714ZM600.226 720.403L604.081 741.046L624.724 737.191L620.869 716.548L600.226 720.403ZM590.901 669.775L570.257 673.629L574.112 694.273L594.756 690.418L590.901 669.775ZM604.878 667.164L608.733 687.808L609.141 687.731L609.547 687.639L604.878 667.164ZM610.548 645.313L600.35 663.671L600.436 663.718L600.522 663.765L610.548 645.313ZM586.531 646.375L582.676 625.732L562.033 629.587L565.888 650.23L586.531 646.375ZM605.02 719.507L588.555 631.339L547.269 639.049L563.734 727.217L605.02 719.507ZM571.767 655.837L600.283 650.512L592.573 609.226L564.057 614.551L571.767 655.837ZM600.283 650.512C602.494 650.099 604.336 650.072 605.899 650.266L611.071 608.585C604.878 607.817 598.681 608.085 592.573 609.226L600.283 650.512ZM605.899 650.266C607.544 650.47 608.67 650.867 609.477 651.283L628.7 613.94C623.126 611.07 617.182 609.343 611.071 608.585L605.899 650.266ZM609.611 651.351C609.813 651.453 610.059 651.602 610.437 652.112L644.17 627.09C640.061 621.55 634.83 617.039 628.566 613.871L609.611 651.351ZM610.5 652.196C610.613 652.347 610.922 652.793 611.145 653.983L652.431 646.274C651.146 639.394 648.466 632.821 644.108 627.006L610.5 652.196ZM611.145 653.983C611.269 654.65 611.236 654.985 611.221 655.092C611.208 655.187 611.178 655.343 611.027 655.636L648.377 674.845C653.017 665.825 654.252 656.025 652.431 646.274L611.145 653.983ZM611.075 655.544C610.653 656.354 610.007 657.177 608.449 658.066L629.26 694.548C637.349 689.933 643.935 683.378 648.329 674.938L611.075 655.544ZM603.39 690.515L635.241 725.184L666.17 696.768L634.318 662.099L603.39 690.515ZM646.851 690.333L628.693 693.724L636.403 735.01L654.561 731.619L646.851 690.333ZM648.51 700.721L619.758 667.088L587.833 694.379L616.586 728.012L648.51 700.721ZM599.941 660.09L594.824 661.046L602.534 702.332L607.65 701.376L599.941 660.09ZM594.824 661.046L589.333 662.071L597.043 703.357L602.534 702.332L594.824 661.046ZM572.545 686.569L579.583 724.257L620.869 716.548L613.831 678.859L572.545 686.569ZM596.371 699.759L580.522 702.719L588.232 744.005L604.081 741.046L596.371 699.759ZM594.756 690.418L608.733 687.808L601.023 646.521L587.046 649.131L594.756 690.418ZM609.547 687.639C616.749 685.997 624.665 682.43 630.499 675.157L597.739 648.875C599.593 646.565 601.348 646.43 600.209 646.69L609.547 687.639ZM630.499 675.157C636.591 667.564 638.479 658.352 636.816 649.448L595.529 657.158C595.376 656.334 595.273 654.911 595.685 653.16C596.107 651.372 596.91 649.908 597.739 648.875L630.499 675.157ZM636.816 649.448C635.061 640.05 629.611 631.771 620.573 626.861L600.522 663.765C599.423 663.168 598.136 662.146 597.082 660.648C596.053 659.186 595.662 657.865 595.529 657.158L636.816 649.448ZM620.745 626.955C612.255 622.239 603.181 621.903 595.343 623.367L603.053 664.653C603.637 664.544 603.569 664.634 603.01 664.569C602.391 664.498 601.418 664.264 600.35 663.671L620.745 626.955ZM595.343 623.367L582.676 625.732L590.386 667.018L603.053 664.653L595.343 623.367ZM565.888 650.23L570.257 673.629L611.544 665.92L607.174 642.52L565.888 650.23ZM714.516 697.898L724.75 716.235L724.798 716.209L724.846 716.182L714.516 697.898ZM683.38 703.712L680.289 724.483L680.399 724.5L680.509 724.515L683.38 703.712ZM670.164 699.335L659.619 717.495L659.685 717.534L659.752 717.572L670.164 699.335ZM659.938 690.913L644.132 704.739L644.165 704.777L644.198 704.814L659.938 690.913ZM652.565 679.439L633.341 687.89L633.387 687.996L633.435 688.101L652.565 679.439ZM647.357 651.548L626.387 650.419L626.383 650.49L626.38 650.561L647.357 651.548ZM650.092 638.187L669.789 645.47L669.806 645.424L669.823 645.377L650.092 638.187ZM656.589 626.642L672.881 639.892L672.93 639.832L672.978 639.772L656.589 626.642ZM667.335 617.79L677.568 636.128L677.616 636.101L677.664 636.074L667.335 617.79ZM698.471 611.976L695.38 632.747L695.49 632.763L695.6 632.779L698.471 611.976ZM711.749 616.341L701.204 634.501L701.27 634.54L701.337 634.578L711.749 616.341ZM721.975 624.763L706.169 638.59L706.201 638.627L706.234 638.665L721.975 624.763ZM729.285 636.248L710.061 644.699L710.107 644.805L710.155 644.91L729.285 636.248ZM734.494 664.14L713.524 663.012L713.52 663.083L713.517 663.154L734.494 664.14ZM731.821 677.49L751.517 684.773L751.535 684.727L751.552 684.68L731.821 677.49ZM725.324 689.035L741.616 702.285L741.664 702.225L741.712 702.165L725.324 689.035ZM712.919 679.663L730.113 691.72L712.919 679.663ZM716.504 671.891L696.281 666.231L696.263 666.296L696.246 666.361L716.504 671.891ZM717.716 662.818L696.717 662.662L696.716 662.802L696.716 662.943L717.716 662.818ZM714.116 643.537L694.468 650.951L694.527 651.107L694.588 651.261L714.116 643.537ZM709.711 635.513L692.813 647.981L692.892 648.087L692.971 648.192L709.711 635.513ZM703.562 629.558L715.247 612.108L703.562 629.558ZM668.994 636.013L651.8 623.956L668.994 636.013ZM665.346 643.797L645.159 638.013L645.122 638.14L645.087 638.268L665.346 643.797ZM664.135 652.87L643.135 652.768L643.134 652.882L643.135 652.996L664.135 652.87ZM667.735 672.151L648.106 679.613L648.156 679.744L648.207 679.875L667.735 672.151ZM672.14 680.175L655.166 692.541L655.282 692.699L655.4 692.855L672.14 680.175ZM678.351 686.118L666.667 703.568L678.351 686.118ZM704.283 679.56C702.122 680.766 699.297 681.83 695.567 682.527L703.277 723.813C710.861 722.397 718.099 719.947 724.75 716.235L704.283 679.56ZM695.567 682.527C691.84 683.223 688.779 683.258 686.25 682.909L680.509 724.515C688.055 725.556 695.689 725.23 703.277 723.813L695.567 682.527ZM686.47 682.941C683.652 682.521 681.801 681.797 680.576 681.098L659.752 717.572C666.141 721.22 673.1 723.414 680.289 724.483L686.47 682.941ZM680.709 681.175C678.899 680.124 677.232 678.771 675.679 677.012L644.198 704.814C648.65 709.855 653.8 714.117 659.619 717.495L680.709 681.175ZM675.745 677.087C674.103 675.21 672.761 673.129 671.696 670.778L633.435 688.101C636.18 694.164 639.753 699.733 644.132 704.739L675.745 677.087ZM671.79 670.989C670.607 668.296 669.671 665.286 669.039 661.899L627.752 669.609C628.937 675.955 630.782 682.069 633.341 687.89L671.79 670.989ZM669.039 661.899C668.406 658.51 668.199 655.401 668.334 652.534L626.38 650.561C626.082 656.901 626.567 663.263 627.752 669.609L669.039 661.899ZM668.327 652.676C668.467 650.069 668.966 647.695 669.789 645.47L630.396 630.903C628.072 637.187 626.748 643.72 626.387 650.419L668.327 652.676ZM669.823 645.377C670.623 643.183 671.654 641.401 672.881 639.892L640.297 613.391C635.993 618.684 632.693 624.599 630.362 630.996L669.823 645.377ZM672.978 639.772C673.814 638.729 675.194 637.453 677.568 636.128L657.101 599.452C650.664 603.044 644.881 607.669 640.201 613.511L672.978 639.772ZM677.664 636.074C679.849 634.84 682.661 633.773 686.335 633.087L678.625 591.8C670.983 593.227 663.699 595.725 657.005 599.506L677.664 636.074ZM686.335 633.087C690.011 632.4 692.977 632.389 695.38 632.747L701.562 591.204C693.959 590.073 686.263 590.374 678.625 591.8L686.335 633.087ZM695.6 632.779C698.341 633.157 700.084 633.851 701.204 634.501L722.294 598.181C715.785 594.401 708.676 592.185 701.342 591.173L695.6 632.779ZM701.337 634.578C703.026 635.542 704.631 636.832 706.169 638.59L737.781 610.937C733.298 605.812 728.086 601.487 722.161 598.104L701.337 634.578ZM706.234 638.665C707.765 640.397 709.04 642.377 710.061 644.699L748.51 627.798C745.788 621.606 742.19 615.929 737.715 610.862L706.234 638.665ZM710.155 644.91C711.317 647.476 712.241 650.387 712.863 653.715L754.149 646.005C752.953 639.6 751.064 633.436 748.416 627.587L710.155 644.91ZM712.863 653.715C713.484 657.042 713.679 660.128 713.524 663.012L755.464 665.269C755.809 658.847 755.346 652.412 754.149 646.005L712.863 653.715ZM713.517 663.154C713.399 665.655 712.923 668.013 712.09 670.299L751.552 684.68C753.849 678.375 755.155 671.832 755.471 665.127L713.517 663.154ZM712.124 670.206C711.311 672.407 710.244 674.27 708.935 675.904L741.712 702.165C745.92 696.914 749.185 691.081 751.517 684.773L712.124 670.206ZM709.032 675.784C708.168 676.846 706.709 678.189 704.187 679.614L724.846 716.182C731.202 712.591 736.948 708.025 741.616 702.285L709.032 675.784ZM682.83 709.964C688.867 711.055 694.878 710.853 700.655 709.774L692.945 668.487C691.401 668.776 690.588 668.686 690.299 668.633L682.83 709.964ZM700.655 709.774C706.432 708.695 712.111 706.714 717.348 703.518L695.466 667.668C695.215 667.821 694.49 668.199 692.945 668.487L700.655 709.774ZM717.348 703.518C722.178 700.57 726.619 696.703 730.113 691.72L695.725 667.607C695.791 667.513 695.849 667.442 695.892 667.393C695.936 667.344 695.959 667.323 695.954 667.327C695.944 667.337 695.804 667.462 695.466 667.668L717.348 703.518ZM730.113 691.72C733.21 687.303 735.385 682.469 736.763 677.42L696.246 666.361C696.039 667.118 695.824 667.466 695.725 667.607L730.113 691.72ZM736.728 677.55C738.086 672.696 738.746 667.724 738.716 662.692L696.716 662.943C696.723 664.104 696.576 665.18 696.281 666.231L736.728 677.55ZM738.715 662.974C738.75 658.363 738.287 653.734 737.427 649.128L696.14 656.838C696.57 659.137 696.728 661.065 696.717 662.662L738.715 662.974ZM737.427 649.128C736.571 644.547 735.334 640.086 733.643 635.813L694.588 651.261C695.181 652.76 695.722 654.597 696.14 656.838L737.427 649.128ZM733.763 636.122C731.97 631.37 729.54 626.911 726.451 622.833L692.971 648.192C693.539 648.942 694.046 649.832 694.468 650.951L733.763 636.122ZM726.609 623.044C723.502 618.833 719.729 615.11 715.247 612.108L691.878 647.007C692.021 647.103 692.347 647.349 692.813 647.981L726.609 623.044ZM715.247 612.108C710.19 608.722 704.652 606.719 699.083 605.712L691.615 647.043C692.005 647.113 692.18 647.18 692.193 647.185C692.199 647.187 692.17 647.176 692.111 647.146C692.053 647.116 691.973 647.07 691.878 647.007L715.247 612.108ZM699.083 605.712C693.046 604.621 687.035 604.824 681.258 605.902L688.968 647.189C690.513 646.9 691.325 646.991 691.615 647.043L699.083 605.712ZM681.258 605.902C675.481 606.981 669.802 608.962 664.566 612.158L686.447 648.008C686.698 647.855 687.423 647.477 688.968 647.189L681.258 605.902ZM664.566 612.158C659.735 615.106 655.294 618.974 651.8 623.956L686.188 648.07C686.123 648.163 686.065 648.234 686.021 648.284C685.978 648.332 685.954 648.353 685.959 648.349C685.969 648.34 686.109 648.214 686.447 648.008L664.566 612.158ZM651.8 623.956C648.75 628.306 646.579 633.057 645.159 638.013L685.534 649.581C685.782 648.716 686.043 648.277 686.188 648.07L651.8 623.956ZM645.087 638.268C643.791 643.018 643.159 647.872 643.135 652.768L685.135 652.972C685.141 651.577 685.317 650.383 685.605 649.327L645.087 638.268ZM643.135 652.996C643.162 657.482 643.635 661.99 644.475 666.486L685.761 658.776C685.327 656.45 685.145 654.45 685.134 652.744L643.135 652.996ZM644.475 666.486C645.319 671.008 646.506 675.405 648.106 679.613L687.365 664.69C686.764 663.109 686.206 661.159 685.761 658.776L644.475 666.486ZM648.207 679.875C649.989 684.38 652.308 688.618 655.166 692.541L689.113 667.809C688.382 666.806 687.765 665.695 687.263 664.427L648.207 679.875ZM655.4 692.855C658.513 696.965 662.252 700.612 666.667 703.568L690.035 668.669C689.824 668.528 689.423 668.213 688.879 667.495L655.4 692.855ZM666.667 703.568C671.723 706.954 677.261 708.958 682.83 709.964L690.299 668.633C689.909 668.563 689.733 668.496 689.721 668.491C689.714 668.489 689.744 668.5 689.802 668.53C689.86 668.56 689.94 668.606 690.035 668.669L666.667 703.568ZM773.255 688.091L752.612 691.946L756.467 712.589L777.11 708.734L773.255 688.091ZM759.436 614.087L780.079 610.232L776.224 589.589L755.581 593.444L759.436 614.087ZM731.793 619.249L711.15 623.104L715.005 643.747L735.648 639.892L731.793 619.249ZM729.148 605.085L725.294 584.442L704.65 588.296L708.505 608.94L729.148 605.085ZM800.22 591.813L820.863 587.958L817.008 567.315L796.365 571.17L800.22 591.813ZM802.865 605.977L806.72 626.62L827.363 622.766L823.508 602.122L802.865 605.977ZM775.285 611.128L771.43 590.484L750.787 594.339L754.642 614.982L775.285 611.128ZM789.104 685.131L792.959 705.775L813.602 701.92L809.747 681.277L789.104 685.131ZM793.898 684.236L780.079 610.232L738.793 617.942L752.612 691.946L793.898 684.236ZM755.581 593.444L727.939 598.606L735.648 639.892L763.291 634.73L755.581 593.444ZM752.437 615.394L749.792 601.23L708.505 608.94L711.15 623.104L752.437 615.394ZM733.003 625.728L804.075 612.456L796.365 571.17L725.294 584.442L733.003 625.728ZM779.577 595.668L782.222 609.832L823.508 602.122L820.863 587.958L779.577 595.668ZM799.01 585.334L771.43 590.484L779.14 631.771L806.72 626.62L799.01 585.334ZM754.642 614.982L768.461 688.986L809.747 681.277L795.928 607.273L754.642 614.982ZM785.249 664.488L769.4 667.448L777.11 708.734L792.959 705.775L785.249 664.488ZM829.351 677.616L808.708 681.471L812.563 702.114L833.206 698.259L829.351 677.616ZM812.886 589.448L809.032 568.804L788.388 572.659L792.243 593.302L812.886 589.448ZM871.54 578.495L892.184 574.64L888.329 553.996L867.686 557.851L871.54 578.495ZM874.255 593.033L878.11 613.676L898.753 609.822L894.899 589.178L874.255 593.033ZM831.45 601.027L827.596 580.383L806.952 584.238L810.807 604.882L831.45 601.027ZM835.61 623.303L814.967 627.158L818.822 647.801L839.465 643.946L835.61 623.303ZM875.483 615.857L896.126 612.002L892.271 591.359L871.628 595.214L875.483 615.857ZM878.198 630.396L882.052 651.039L902.696 647.184L898.841 626.541L878.198 630.396ZM838.325 637.841L834.47 617.198L813.827 621.053L817.682 641.696L838.325 637.841ZM842.403 659.681L821.76 663.536L825.615 684.179L846.258 680.324L842.403 659.681ZM885.208 651.687L905.852 647.832L901.997 627.189L881.354 631.044L885.208 651.687ZM888.005 666.663L891.86 687.306L912.503 683.451L908.648 662.808L888.005 666.663ZM849.994 673.761L833.53 585.593L792.243 593.302L808.708 681.471L849.994 673.761ZM816.741 610.091L875.395 599.138L867.686 557.851L809.032 568.804L816.741 610.091ZM850.897 582.349L853.612 596.888L894.899 589.178L892.184 574.64L850.897 582.349ZM870.401 572.39L827.596 580.383L835.305 621.67L878.11 613.676L870.401 572.39ZM810.807 604.882L814.967 627.158L856.253 619.448L852.094 597.172L810.807 604.882ZM839.465 643.946L879.337 636.5L871.628 595.214L831.755 602.66L839.465 643.946ZM854.839 619.712L857.554 634.251L898.841 626.541L896.126 612.002L854.839 619.712ZM874.343 609.753L834.47 617.198L842.18 658.485L882.052 651.039L874.343 609.753ZM817.682 641.696L821.76 663.536L863.047 655.826L858.968 633.987L817.682 641.696ZM846.258 680.324L889.063 672.33L881.354 631.044L838.549 639.038L846.258 680.324ZM864.565 655.542L867.362 670.518L908.648 662.808L905.852 647.832L864.565 655.542ZM884.15 646.02L825.496 656.973L833.206 698.259L891.86 687.306L884.15 646.02ZM920.71 659.91L918.406 680.783L918.514 680.795L918.621 680.806L920.71 659.91ZM900.265 650.361L884.976 664.757L885.017 664.8L885.058 664.843L900.265 650.361ZM893.901 639.797L885.083 620.738L867.695 628.783L874.115 646.834L893.901 639.797ZM908.88 632.867L929.018 626.914L922.126 603.6L900.062 613.808L908.88 632.867ZM916.896 643.639L907.011 662.167L907.067 662.197L907.123 662.226L916.896 643.639ZM940.198 640.127L924.107 626.634L924.053 626.698L923.999 626.763L940.198 640.127ZM939.608 625.902L924.811 640.803L925.015 641.006L925.224 641.203L939.608 625.902ZM934.011 622.556L927.25 642.438L927.409 642.492L927.568 642.544L934.011 622.556ZM926.518 620.468L921.687 640.905L921.748 640.92L921.81 640.934L926.518 620.468ZM918.135 618.805L921.489 598.075L918.135 618.805ZM909.597 616.654L902.667 636.478L902.737 636.502L902.806 636.526L909.597 616.654ZM901.91 613.182L891.218 631.256L891.326 631.32L891.434 631.382L901.91 613.182ZM895.785 607.352L878.436 619.185L878.511 619.295L878.587 619.403L895.785 607.352ZM902.021 574.352L913.927 591.651L914 591.601L914.072 591.55L902.021 574.352ZM931.421 569.96L924.796 589.888L924.864 589.91L924.933 589.933L931.421 569.96ZM944.945 579.445L959.001 595.047L974.017 581.518L961.073 565.996L944.945 579.445ZM933.282 589.953L916.683 602.817L930.537 620.693L947.339 605.555L933.282 589.953ZM925.936 584.157L917.693 603.472L917.805 603.52L917.918 603.566L925.936 584.157ZM910.281 599.221L895.146 613.779L895.388 614.031L895.639 614.275L910.281 599.221ZM914.888 602.106L907.352 621.707L907.462 621.749L907.572 621.79L914.888 602.106ZM921.102 603.916L916.465 624.397L916.537 624.414L916.609 624.429L921.102 603.916ZM928.354 605.403L924.393 626.026L924.613 626.068L924.834 626.106L928.354 605.403ZM935.941 606.956L931.045 627.378L931.263 627.43L931.483 627.478L935.941 606.956ZM943.355 609.317L935.112 628.631L935.198 628.668L935.285 628.704L943.355 609.317ZM949.919 612.999L937.415 629.87L937.522 629.949L937.629 630.027L949.919 612.999ZM955.062 618.754L937.048 629.548L937.154 629.725L937.264 629.899L955.062 618.754ZM956.632 642.03L937.375 633.653L937.366 633.675L937.356 633.697L956.632 642.03ZM947.324 653.39L959.317 670.629L959.381 670.584L959.445 670.539L947.324 653.39ZM928.639 638.745C926.598 639.126 924.671 639.201 922.798 639.014L918.621 680.806C924.557 681.399 930.487 681.126 936.349 680.031L928.639 638.745ZM923.014 639.037C921.104 638.826 919.465 638.376 918.005 637.742L901.279 676.267C906.752 678.644 912.492 680.13 918.406 680.783L923.014 639.037ZM918.005 637.742C917.289 637.431 916.452 636.908 915.472 635.879L885.058 664.843C889.646 669.662 895.061 673.568 901.279 676.267L918.005 637.742ZM915.554 635.965C914.876 635.245 914.225 634.273 913.687 632.759L874.115 646.834C876.477 653.475 880.069 659.546 884.976 664.757L915.554 635.965ZM902.719 658.856L917.697 651.926L900.062 613.808L885.083 620.738L902.719 658.856ZM888.741 638.82C891.455 648.001 897.1 656.879 907.011 662.167L926.782 625.111C927.693 625.597 928.418 626.27 928.87 626.878C929.27 627.415 929.212 627.569 929.018 626.914L888.741 638.82ZM907.123 662.226C915.795 666.786 925.125 667.598 933.977 665.945L926.267 624.659C925.647 624.775 925.506 624.716 925.723 624.744C925.827 624.757 925.98 624.786 926.165 624.843C926.35 624.901 926.523 624.974 926.67 625.052L907.123 662.226ZM933.977 665.945C941.549 664.531 950.104 661.117 956.396 653.492L923.999 626.763C924.955 625.604 925.928 624.97 926.479 624.687C926.97 624.435 927.002 624.522 926.267 624.659L933.977 665.945ZM956.289 653.621C962.37 646.369 965.003 637.123 963.206 627.501L921.92 635.21C921.698 634.02 921.653 632.359 922.151 630.514C922.643 628.688 923.476 627.385 924.107 626.634L956.289 653.621ZM963.206 627.501C962.005 621.065 958.887 615.204 953.991 610.601L925.224 641.203C924.439 640.465 923.676 639.516 923.058 638.376C922.443 637.24 922.094 636.142 921.92 635.21L963.206 627.501ZM954.404 611.001C950.364 606.989 945.574 604.219 940.453 602.569L927.568 642.544C926.845 642.31 925.785 641.771 924.811 640.803L954.404 611.001ZM940.771 602.674C937.76 601.65 934.559 600.77 931.225 600.003L921.81 640.934C924.054 641.45 925.848 641.962 927.25 642.438L940.771 602.674ZM931.348 600.031C928.103 599.264 924.816 598.613 921.489 598.075L914.781 639.535C917.137 639.916 919.438 640.374 921.687 640.905L931.348 600.031ZM921.489 598.075C919.869 597.812 918.172 597.392 916.388 596.782L902.806 636.526C906.725 637.865 910.719 638.878 914.781 639.535L921.489 598.075ZM916.527 596.83C914.81 596.23 913.453 595.596 912.387 594.982L891.434 631.382C894.998 633.434 898.765 635.114 902.667 636.478L916.527 596.83ZM912.603 595.108C912.866 595.264 913.037 595.408 913.115 595.482C913.187 595.551 913.133 595.515 912.983 595.3L878.587 619.403C881.829 624.029 885.993 628.165 891.218 631.256L912.603 595.108ZM913.133 595.518C913.184 595.592 913.174 595.598 913.129 595.485C913.081 595.366 912.985 595.088 912.894 594.6L871.608 602.31C872.705 608.188 874.868 613.953 878.436 619.185L913.133 595.518ZM912.894 594.6C912.75 593.828 912.769 593.401 912.784 593.241C912.798 593.099 912.82 593.037 912.849 592.969L874.348 576.187C870.644 584.684 869.987 593.632 871.608 602.31L912.894 594.6ZM912.849 592.969C913.126 592.335 913.395 592.017 913.927 591.651L890.114 557.054C883.093 561.887 877.748 568.386 874.348 576.187L912.849 592.969ZM914.072 591.55C915.122 590.814 916.658 590.076 919.079 589.624L911.369 548.338C903.723 549.766 896.457 552.609 889.969 557.155L914.072 591.55ZM919.079 589.624C921.464 589.179 923.243 589.371 924.796 589.888L938.046 550.032C929.318 547.131 920.299 546.67 911.369 548.338L919.079 589.624ZM924.933 589.933C925.851 590.231 927.147 590.892 928.817 592.895L961.073 565.996C954.977 558.686 947.257 553.024 937.909 549.987L924.933 589.933ZM930.888 563.844L919.225 574.352L947.339 605.555L959.001 595.047L930.888 563.844ZM949.881 577.089C945.84 571.876 940.559 567.477 933.954 564.748L917.918 603.566C917.474 603.383 917.114 603.157 916.864 602.96C916.625 602.771 916.578 602.682 916.683 602.817L949.881 577.089ZM934.179 564.843C927.623 562.045 920.537 561.22 913.441 562.545L921.151 603.831C920.66 603.923 920.03 603.964 919.329 603.886C918.632 603.807 918.071 603.633 917.693 603.472L934.179 564.843ZM913.441 562.545C906.25 563.887 899.147 567.375 893.762 573.804L925.959 600.773C925.17 601.715 924.211 602.491 923.207 603.045C922.238 603.579 921.477 603.77 921.151 603.831L913.441 562.545ZM893.762 573.804C887.872 580.836 885.652 589.684 887.305 598.539L928.592 590.829C928.831 592.113 928.902 593.934 928.368 596.002C927.831 598.079 926.868 599.688 925.959 600.773L893.762 573.804ZM887.305 598.539C888.382 604.303 891.068 609.539 895.146 613.779L925.415 584.662C927.037 586.348 928.168 588.56 928.592 590.829L887.305 598.539ZM895.639 614.275C899.134 617.674 903.159 620.095 907.352 621.707L922.424 582.504C922.999 582.726 923.952 583.223 924.922 584.167L895.639 614.275ZM907.572 621.79C910.443 622.857 913.429 623.71 916.465 624.397L925.739 583.434C924.19 583.083 923.033 582.73 922.203 582.421L907.572 621.79ZM916.609 624.429C919.131 624.982 921.726 625.514 924.393 626.026L932.314 584.78C929.98 584.331 927.741 583.872 925.595 583.402L916.609 624.429ZM924.834 626.106C926.903 626.457 928.973 626.881 931.045 627.378L940.836 586.535C937.861 585.822 934.873 585.21 931.873 584.7L924.834 626.106ZM931.483 627.478C932.755 627.754 933.958 628.139 935.112 628.631L951.599 590.003C947.981 588.459 944.241 587.27 940.398 586.435L931.483 627.478ZM935.285 628.704C936.268 629.114 936.946 629.523 937.415 629.87L962.423 596.127C958.995 593.587 955.297 591.541 951.426 589.93L935.285 628.704ZM937.629 630.027C937.337 629.816 937.143 629.625 937.038 629.508C936.938 629.396 936.952 629.388 937.048 629.548L973.076 607.96C970.377 603.456 966.812 599.293 962.209 595.971L937.629 630.027ZM937.264 629.899C937.153 629.722 937.333 629.913 937.501 630.816L978.787 623.106C977.791 617.768 975.916 612.488 972.86 607.609L937.264 629.899ZM937.501 630.816C937.811 632.477 937.573 633.199 937.375 633.653L975.888 650.408C979.727 641.584 980.497 632.26 978.787 623.106L937.501 630.816ZM937.356 633.697C936.956 634.623 936.387 635.404 935.202 636.242L959.445 670.539C966.703 665.408 972.339 658.617 975.907 650.364L937.356 633.697ZM935.331 636.152C933.814 637.207 931.717 638.17 928.639 638.745L936.349 680.031C944.586 678.493 952.375 675.458 959.317 670.629L935.331 636.152ZM978.108 649.837L957.464 653.692L961.319 674.335L981.962 670.48L978.108 649.837ZM961.643 561.669L957.788 541.026L937.145 544.881L941 565.524L961.643 561.669ZM977.492 558.709L998.135 554.854L994.28 534.211L973.637 538.066L977.492 558.709ZM986.08 604.696L965.437 608.551L975.215 660.916L1003.8 615.965L986.08 604.696ZM1020.42 550.693L1016.57 530.049L1007.6 531.724L1002.7 539.424L1020.42 550.693ZM1041.64 546.731L1059.1 558.389L1086.77 516.94L1037.78 526.088L1041.64 546.731ZM1013.13 589.443L995.662 577.784L986.064 592.165L998.334 604.346L1013.13 589.443ZM1058.79 634.771L1062.64 655.414L1101.99 648.067L1073.58 619.868L1058.79 634.771ZM1039.07 638.453L1023.93 653.006L1031.78 661.177L1042.93 659.096L1039.07 638.453ZM1004.13 602.101L1019.27 587.548L1001.07 568.62L986.604 590.528L1004.13 602.101ZM989.68 623.977L972.157 612.405L967.479 619.488L969.037 627.832L989.68 623.977ZM993.957 646.877L997.812 667.521L1018.45 663.666L1014.6 643.023L993.957 646.877ZM998.751 645.982L982.286 557.814L941 565.524L957.464 653.692L998.751 645.982ZM965.498 582.312L981.347 579.352L973.637 538.066L957.788 541.026L965.498 582.312ZM956.849 562.564L965.437 608.551L1006.72 600.842L998.135 554.854L956.849 562.564ZM1003.8 615.965L1038.14 561.961L1002.7 539.424L968.359 593.428L1003.8 615.965ZM1024.28 571.336L1045.49 567.374L1037.78 526.088L1016.57 530.049L1024.28 571.336ZM1024.17 535.073L995.662 577.784L1030.6 601.101L1059.1 558.389L1024.17 535.073ZM998.334 604.346L1043.99 649.674L1073.58 619.868L1027.92 574.539L998.334 604.346ZM1054.93 614.128L1035.22 617.81L1042.93 659.096L1062.64 655.414L1054.93 614.128ZM1054.21 623.9L1019.27 587.548L988.988 616.654L1023.93 653.006L1054.21 623.9ZM986.604 590.528L972.157 612.405L1007.2 635.55L1021.65 613.674L986.604 590.528ZM969.037 627.832L973.314 650.732L1014.6 643.023L1010.32 620.123L969.037 627.832ZM990.102 626.234L974.253 629.194L981.962 670.48L997.812 667.521L990.102 626.234Z" fill="black" mask="url(#path-3-outside-2_329_40)"/>
</svg>
